<svg xmlns="http://www.w3.org/2000/svg" version="1.1" xmlns:xlink="http://www.w3.org/1999/xlink" xmlns:svgjs="http://svgjs.dev/svgjs" width="2000" height="1500" viewBox="0 0 2000 1500"><rect width="2000" height="1500" fill="#ffffff"></rect><g transform="matrix(0.75,0,0,0.75,249.09154779283585,567.0979824336364)"><svg viewBox="0 0 396 97" data-background-color="#fce44d" preserveAspectRatio="xMidYMid meet" height="489" width="2000" xmlns="http://www.w3.org/2000/svg" xmlns:xlink="http://www.w3.org/1999/xlink"><g id="tight-bounds" transform="matrix(1,0,0,1,0.24008861730862918,-0.12498006336926437)"><svg viewBox="0 0 395.52 97.25007698514904" height="97.25007698514904" width="395.52"><g><svg viewBox="0 0 395.52 97.25007698514904" height="97.25007698514904" width="395.52"><g><svg viewBox="0 0 395.52 97.25007698514904" height="97.25007698514904" width="395.52"><g id="textblocktransform"><svg viewBox="0 0 395.52 97.25007698514904" height="97.25007698514904" width="395.52" id="textblock"><g><svg viewBox="0 0 395.52 78.20680178719266" height="78.20680178719266" width="395.52"><path d="M394.594 16.774C392.735 8.656 387.435 6.399 387.435 6.399 371.165-1.962 350.86-0.16 332.619 1.041 300.414 1.09 268.339 2.876 236.208 3.834 168.767 3.98 100.749 1.577 33.643 7.503 27.339 9.322-6.54 7.86 1.121 17.813 3.129 21.953 10.456 26.548 10.232 30.347 11.236 31.013 12.631 29.486 13.226 30.444 15.309 33.026 18.711 31.808 21.501 33.334 17.614 37.409 20.403 40.803 23.062 44.358 18.377 45.284 12.371 44.845 9.675 47.914 9.396 50.138 7.89 49.716 6.235 49.619 5.026 49.554 2.59 49.797 2.999 50.495 4.394 52.882-1.594 54.262 2.162 56.6-0.422 59.133 3.948 61.325 3.353 64.068 3.278 64.62 3.687 65.091 4.338 65.221 7.22 65.919 3.018 67.283 3.464 68.761 33.029 78.859 65.104 71.878 95.394 76.521 103.259 73.274 97.346 77.674 100.489 76.992 102.943 76.196 104.728 79.492 107.499 77.625 107.927 77.089 107.276 75.823 108.8 76.067 109.6 76.196 110.307 76.164 110.418 75.417 110.586 74.297 109.117 74.995 108.726 74.411 112.947 71.456 111.906 78.486 115.866 78.193 115.68 77.333 114.528 76.099 116.889 76.261 119.232 75.027 119.306 74.005 121.389 76.781 121.463 77.382 121.835 77.804 122.43 78.096 128.938 75.076 135.409 79.168 142.233 77.804 146.417 76.31 150.433 78.616 154.672 78.047 156.16 77.593 157.666 76.781 159.098 78.145 176.632 78.437 195.319 77.219 211.943 78.193 256.364 76.375 303.835 78.94 350.674 76.537 361.719 75.612 373.192 74.297 383.958 73.242 383.958 73.242 392.679 70.352 392.679 57.363S394.538 45.998 394.817 35.656C395.096 25.314 396.398 24.892 394.538 16.774Z" opacity="1" fill="#000000" data-fill-palette-color="tertiary"></path><g transform="matrix(1,0,0,1,55.76832,26.068561146666667)"><svg width="283.98335999999995" viewBox="1.7999999523162842 -36.5 403.02001953125 37" height="26.06967949385932" data-palette-color="#fce44d"><path d="M18.2-33.1L13-32.05 13-3.75 25.1-3.75 26.8-12.4 31.05-12.4 31.05 0 1.8 0 1.8-2.9 6.5-3.95 6.5-32.05 1.8-33.1 1.8-36 18.2-36 18.2-33.1ZM57-25.1L57-11.9 52.95-11.9 52.1-16.6 45.25-16.6 45.25-3.75 59-3.75 60.4-11.15 64.8-11.15 64.8 0 34.05 0 34.05-2.9 38.75-3.95 38.75-32.05 34.05-33.1 34.05-36 63.7-36 63.7-25.4 59.6-25.4 58.15-32.35 45.25-32.35 45.25-20.35 52.1-20.35 52.95-25.1 57-25.1ZM88.8-2.9L92.9-3.95 90.35-11.7 78.15-11.7 75.55-3.95 79.7-2.9 79.7 0 66.5 0 66.5-2.9 70.6-3.95 82.3-36.5 88.45-36.5 100.05-3.95 104.05-2.9 104.05 0 88.8 0 88.8-2.9ZM84.5-29.9L84.3-29.9 79.4-15.35 89.15-15.35 84.5-29.9ZM131.84-19.1L131.84-19.1Q130.94-18.4 129.82-17.75 128.69-17.1 126.94-16.7L126.94-16.7Q127.19-16.45 127.74-15.83 128.29-15.2 128.79-14.35L128.79-14.35 134.99-3.85 139.44-2.9 139.44 0 127.64 0 127.64-2.9 121.09-15.75 116.29-15.75 116.29-3.95 121.04-2.9 121.04 0 105.59 0 105.59-2.9 109.79-3.95 109.79-32.05 105.59-33.1 105.59-36 124.29-36Q126.69-36 128.52-35.55 130.34-35.1 131.74-34.1L131.74-34.1Q133.54-32.85 134.59-30.78 135.64-28.7 135.64-26.6L135.64-26.6Q135.64-24.5 134.62-22.48 133.59-20.45 131.84-19.1ZM116.29-32.35L116.29-19.4 121.94-19.4Q124.69-19.4 126.49-20.95L126.49-20.95Q127.49-21.8 128.07-23.23 128.64-24.65 128.64-26.3L128.64-26.3Q128.64-27.8 128.04-29.03 127.44-30.25 126.44-31.05L126.44-31.05Q125.59-31.75 124.47-32.05 123.34-32.35 121.74-32.35L121.74-32.35 116.29-32.35ZM141.44-2.9L145.64-3.95 145.64-32.05 141.44-33.1 141.44-36 152.99-36 169.69-9.6 169.69-32.05 165.49-33.1 165.49-36 178.64-36 178.64-33.1 174.44-32.05 174.44 0 168.89 0 150.39-28.7 150.39-3.95 154.59-2.9 154.59 0 141.44 0 141.44-2.9ZM216.34-18.4L216.34-18.4Q216.34-14.25 215.14-10.4 213.94-6.55 211.34-3.85L211.34-3.85Q209.19-1.65 206.19-0.58 203.19 0.5 198.99 0.5L198.99 0.5Q194.79 0.5 191.79-0.55 188.79-1.6 186.74-3.7L186.74-3.7Q184.59-5.95 183.26-9.58 181.94-13.2 181.94-17.6L181.94-17.6Q181.94-21.95 183.26-25.78 184.59-29.6 186.94-32.15L186.94-32.15Q189.04-34.4 191.99-35.45 194.94-36.5 199.14-36.5L199.14-36.5Q203.14-36.5 206.19-35.5 209.24-34.5 211.49-32.3L211.49-32.3Q214.09-29.7 215.21-26.03 216.34-22.35 216.34-18.4ZM189.19-18.55L189.19-18.55Q189.19-14.65 189.91-11.65 190.64-8.65 191.89-6.75L191.89-6.75Q193.09-4.9 194.89-3.95 196.69-3 199.29-3L199.29-3Q203.99-3 206.39-6.3L206.39-6.3Q207.69-8.05 208.39-10.9 209.09-13.75 209.09-17.7L209.09-17.7Q209.09-21.65 208.36-24.58 207.64-27.5 206.34-29.35L206.34-29.35Q205.04-31.25 203.16-32.15 201.29-33.05 198.94-33.05L198.94-33.05Q196.59-33.05 194.86-32.18 193.14-31.3 191.99-29.75L191.99-29.75Q189.19-26.05 189.19-18.55ZM242.09-5.3L242.29-5.3 251.59-36 264.79-36 264.79-33.1 260.59-32.05 260.59-3.95 264.79-2.9 264.79 0 250.44 0 250.44-2.9 254.09-3.95 254.09-32 244.99 0 237.89 0 228.99-32 228.99-3.95 232.64-2.9 232.64 0 220.04 0 220.04-2.9 224.24-3.95 224.24-32.05 220.04-33.1 220.04-36 233.44-36 242.09-5.3ZM291.58-25.1L291.58-11.9 287.53-11.9 286.68-16.6 279.83-16.6 279.83-3.75 293.58-3.75 294.98-11.15 299.38-11.15 299.38 0 268.63 0 268.63-2.9 273.33-3.95 273.33-32.05 268.63-33.1 268.63-36 298.28-36 298.28-25.4 294.18-25.4 292.73-32.35 279.83-32.35 279.83-20.35 286.68-20.35 287.53-25.1 291.58-25.1ZM302.93-24.75L302.93-36 334.23-36 334.23-24.75 331.03-24.75 329.43-32.25 321.83-32.25 321.83-4.1 327.13-2.9 327.13 0 310.03 0 310.03-2.9 315.33-4.1 315.33-32.25 307.68-32.25 306.13-24.75 302.93-24.75ZM363.73-19.1L363.73-19.1Q362.83-18.4 361.7-17.75 360.58-17.1 358.83-16.7L358.83-16.7Q359.08-16.45 359.63-15.83 360.18-15.2 360.68-14.35L360.68-14.35 366.88-3.85 371.33-2.9 371.33 0 359.53 0 359.53-2.9 352.98-15.75 348.18-15.75 348.18-3.95 352.93-2.9 352.93 0 337.48 0 337.48-2.9 341.68-3.95 341.68-32.05 337.48-33.1 337.48-36 356.18-36Q358.58-36 360.4-35.55 362.23-35.1 363.63-34.1L363.63-34.1Q365.43-32.85 366.48-30.78 367.53-28.7 367.53-26.6L367.53-26.6Q367.53-24.5 366.5-22.48 365.48-20.45 363.73-19.1ZM348.18-32.35L348.18-19.4 353.83-19.4Q356.58-19.4 358.38-20.95L358.38-20.95Q359.38-21.8 359.95-23.23 360.53-24.65 360.53-26.3L360.53-26.3Q360.53-27.8 359.93-29.03 359.33-30.25 358.33-31.05L358.33-31.05Q357.48-31.75 356.35-32.05 355.23-32.35 353.63-32.35L353.63-32.35 348.18-32.35ZM381.03-32.05L388.43-18.15 396.03-32.05 391.98-33.1 391.98-36 404.82-36 404.82-33.1 400.73-32.05 390.93-14.1 390.93-3.95 395.63-2.9 395.63 0 379.73 0 379.73-2.9 384.43-3.95 384.43-13.3 374.07-32.05 369.93-33.1 369.93-36 385.23-36 385.23-33.1 381.03-32.05Z" opacity="1" transform="matrix(1,0,0,1,0,0)" fill="#ffffff" class="undefined-text-0" data-fill-palette-color="quaternary" id="text-0"></path></svg></g></svg></g><g transform="matrix(1,0,0,1,104.13682902301949,84.36122744338499)"><svg viewBox="0 0 187.246341953961 12.888849541764046" height="12.888849541764046" width="187.246341953961"><g transform="matrix(1,0,0,1,0,0)"><svg width="187.246341953961" viewBox="3.5 -35 522.9500122070312 36" height="12.888849541764046" data-palette-color="#374151"><path d="M10.75-3.75L32.25-3.75 32.25 0 3.5 0 3.5-35 10.75-35 10.75-3.75ZM49.75-2.5L49.75-2.5Q52.2-2.5 54.32-3.35 56.45-4.2 58.5-5.75L58.5-5.75 60.5-2.75Q59.55-1.9 58.27-1.2 57-0.5 55.52-0.03 54.05 0.45 52.45 0.73 50.85 1 49.25 1L49.25 1Q45.7 1 42.77 0.08 39.85-0.85 37.8-2.63 35.75-4.4 34.62-7 33.5-9.6 33.5-13L33.5-13Q33.5-16.35 34.57-18.98 35.65-21.6 37.57-23.38 39.5-25.15 42.15-26.08 44.8-27 48-27L48-27Q51-27 53.65-26.1 56.3-25.2 58.25-23.48 60.2-21.75 61.35-19.3 62.5-16.85 62.5-13.75L62.5-13.75 62.5-10.25 41.15-10.25Q41.75-6.1 44.02-4.3 46.3-2.5 49.75-2.5ZM48-23.75L48-23.75Q46.55-23.75 45.3-23.2 44.05-22.65 43.12-21.45 42.2-20.25 41.62-18.35 41.05-16.45 41-13.75L41-13.75 55-13.75Q55-16.35 54.4-18.25 53.8-20.15 52.82-21.38 51.85-22.6 50.57-23.18 49.3-23.75 48-23.75ZM69.5-9.5L69.5-22.5 64.75-22.5 64.75-26 69.5-26 69.5-34 76.5-34 76.5-26 84.25-26 84.25-22.5 76.5-22.5 76.5-9.5Q76.5-7.6 76.92-6.28 77.34-4.95 78.07-4.13 78.8-3.3 79.75-2.9 80.7-2.5 81.75-2.5L81.75-2.5Q83.25-2.5 84.65-2.98 86.05-3.45 87-4L87-4 88.5-0.75Q87 0 85.07 0.5 83.15 1 81.25 1L81.25 1Q75.59 1 72.55-1.8 69.5-4.6 69.5-9.5L69.5-9.5ZM95.49-23.5L91.49-23.5 89.99-35 96.99-35 95.49-23.5ZM107.49-20.5L107.49-20.5Q107.49-19.35 108.52-18.4 109.54-17.45 111.99-16.75L111.99-16.75 119.74-14.5Q123.34-13.45 125.29-11.65 127.24-9.85 127.24-7L127.24-7Q127.24-5.2 126.49-3.73 125.74-2.25 124.04-1.2 122.34-0.15 119.64 0.43 116.94 1 112.99 1L112.99 1Q110.94 1 108.97 0.7 106.99 0.4 105.22-0.13 103.44-0.65 101.99-1.33 100.54-2 99.49-2.75L99.49-2.75 101.49-5.75Q103.59-4.45 106.42-3.48 109.24-2.5 112.99-2.5L112.99-2.5Q116.74-2.5 118.24-3.5 119.74-4.5 119.74-6L119.74-6Q119.74-7.15 118.69-8.08 117.64-9 114.99-9.75L114.99-9.75 107.24-12Q104.04-12.95 102.02-14.73 99.99-16.5 99.99-19.5L99.99-19.5Q99.99-21.1 100.72-22.48 101.44-23.85 102.99-24.85 104.54-25.85 106.94-26.43 109.34-27 112.74-27L112.74-27Q116.89-27 120.27-25.88 123.64-24.75 125.74-23.25L125.74-23.25 123.74-20.25Q121.69-21.55 119.09-22.53 116.49-23.5 112.74-23.5L112.74-23.5Q110.09-23.5 108.79-22.65 107.49-21.8 107.49-20.5ZM156.74-35L156.74 0 149.74 0 149.74-35 156.74-35ZM178.73-2.5L178.73-2.5Q181.18-2.5 183.31-3.35 185.43-4.2 187.48-5.75L187.48-5.75 189.48-2.75Q188.53-1.9 187.26-1.2 185.98-0.5 184.51-0.03 183.03 0.45 181.43 0.73 179.83 1 178.23 1L178.23 1Q174.68 1 171.76 0.08 168.83-0.85 166.78-2.63 164.73-4.4 163.61-7 162.48-9.6 162.48-13L162.48-13Q162.48-16.35 163.56-18.98 164.63-21.6 166.56-23.38 168.48-25.15 171.13-26.08 173.78-27 176.98-27L176.98-27Q179.98-27 182.63-26.1 185.28-25.2 187.23-23.48 189.18-21.75 190.33-19.3 191.48-16.85 191.48-13.75L191.48-13.75 191.48-10.25 170.13-10.25Q170.73-6.1 173.01-4.3 175.28-2.5 178.73-2.5ZM176.98-23.75L176.98-23.75Q175.53-23.75 174.28-23.2 173.03-22.65 172.11-21.45 171.18-20.25 170.61-18.35 170.03-16.45 169.98-13.75L169.98-13.75 183.98-13.75Q183.98-16.35 183.38-18.25 182.78-20.15 181.81-21.38 180.83-22.6 179.56-23.18 178.28-23.75 176.98-23.75ZM202.98-8.25L202.98-8.25Q202.98-3.5 208.73-3.5L208.73-3.5 215.73-3.5 215.73-13 208.73-13Q202.98-13 202.98-8.25ZM208.73-16.5L215.73-16.5Q215.73-20.1 213.86-21.8 211.98-23.5 208.98-23.5L208.98-23.5Q206.73-23.5 204.58-22.83 202.43-22.15 200.73-21L200.73-21 198.98-24Q200.08-24.75 201.41-25.3 202.73-25.85 204.13-26.23 205.53-26.6 206.91-26.8 208.28-27 209.48-27L209.48-27Q212.68-27 215.13-26.25 217.58-25.5 219.28-24.1 220.98-22.7 221.86-20.78 222.73-18.85 222.73-16.5L222.73-16.5 222.73 0 208.73 0Q201.93 0 198.71-2.05 195.48-4.1 195.48-8.25L195.48-8.25Q195.48-12.4 198.71-14.45 201.93-16.5 208.73-16.5L208.73-16.5ZM249.23-26L249.23-22.5 243.23-22.5Q239.83-22.5 238.03-20.68 236.23-18.85 236.23-15.25L236.23-15.25 236.23 0 229.23 0 229.23-15.25Q229.23-20.35 232.45-23.18 235.68-26 241.73-26L241.73-26 249.23-26ZM280.73-15.75L280.73 0 273.73 0 273.73-15.75Q273.73-19.35 271.93-20.93 270.13-22.5 266.73-22.5L266.73-22.5 260.23-22.5 260.23 0 253.23 0 253.23-26 266.73-26Q273.88-26 277.3-23.43 280.73-20.85 280.73-15.75L280.73-15.75ZM307.22-9.5L307.22-22.5 302.47-22.5 302.47-26 307.22-26 307.22-34 314.22-34 314.22-26 321.97-26 321.97-22.5 314.22-22.5 314.22-9.5Q314.22-7.6 314.65-6.28 315.07-4.95 315.8-4.13 316.52-3.3 317.47-2.9 318.42-2.5 319.47-2.5L319.47-2.5Q320.97-2.5 322.37-2.98 323.77-3.45 324.72-4L324.72-4 326.22-0.75Q324.72 0 322.8 0.5 320.87 1 318.97 1L318.97 1Q313.32 1 310.27-1.8 307.22-4.6 307.22-9.5L307.22-9.5ZM342.72-2.25L342.72-2.25Q344.32-2.25 345.72-2.85 347.12-3.45 348.17-4.73 349.22-6 349.84-8.05 350.47-10.1 350.47-13L350.47-13Q350.47-15.9 349.84-17.95 349.22-20 348.17-21.28 347.12-22.55 345.72-23.15 344.32-23.75 342.72-23.75L342.72-23.75Q341.12-23.75 339.72-23.15 338.32-22.55 337.27-21.28 336.22-20 335.59-17.95 334.97-15.9 334.97-13L334.97-13Q334.97-10.1 335.59-8.05 336.22-6 337.27-4.73 338.32-3.45 339.72-2.85 341.12-2.25 342.72-2.25ZM342.72-27L342.72-27Q346.07-27 348.89-26.08 351.72-25.15 353.72-23.38 355.72-21.6 356.84-18.98 357.97-16.35 357.97-13L357.97-13Q357.97-9.6 356.84-7 355.72-4.4 353.72-2.63 351.72-0.85 348.89 0.08 346.07 1 342.72 1L342.72 1Q339.32 1 336.52 0.08 333.72-0.85 331.72-2.63 329.72-4.4 328.59-7 327.47-9.6 327.47-13L327.47-13Q327.47-16.35 328.59-18.98 329.72-21.6 331.72-23.38 333.72-25.15 336.52-26.08 339.32-27 342.72-27ZM388.21-35L388.21 0 381.21 0 381.21-35 388.21-35ZM410.21-2.5L410.21-2.5Q412.66-2.5 414.79-3.35 416.91-4.2 418.96-5.75L418.96-5.75 420.96-2.75Q420.01-1.9 418.74-1.2 417.46-0.5 415.99-0.03 414.51 0.45 412.91 0.73 411.31 1 409.71 1L409.71 1Q406.16 1 403.24 0.08 400.31-0.85 398.26-2.63 396.21-4.4 395.09-7 393.96-9.6 393.96-13L393.96-13Q393.96-16.35 395.04-18.98 396.11-21.6 398.04-23.38 399.96-25.15 402.61-26.08 405.26-27 408.46-27L408.46-27Q411.46-27 414.11-26.1 416.76-25.2 418.71-23.48 420.66-21.75 421.81-19.3 422.96-16.85 422.96-13.75L422.96-13.75 422.96-10.25 401.61-10.25Q402.21-6.1 404.49-4.3 406.76-2.5 410.21-2.5ZM408.46-23.75L408.46-23.75Q407.01-23.75 405.76-23.2 404.51-22.65 403.59-21.45 402.66-20.25 402.09-18.35 401.51-16.45 401.46-13.75L401.46-13.75 415.46-13.75Q415.46-16.35 414.86-18.25 414.26-20.15 413.29-21.38 412.31-22.6 411.04-23.18 409.76-23.75 408.46-23.75ZM434.46-8.25L434.46-8.25Q434.46-3.5 440.21-3.5L440.21-3.5 447.21-3.5 447.21-13 440.21-13Q434.46-13 434.46-8.25ZM440.21-16.5L447.21-16.5Q447.21-20.1 445.33-21.8 443.46-23.5 440.46-23.5L440.46-23.5Q438.21-23.5 436.06-22.83 433.91-22.15 432.21-21L432.21-21 430.46-24Q431.56-24.75 432.88-25.3 434.21-25.85 435.61-26.23 437.01-26.6 438.38-26.8 439.76-27 440.96-27L440.96-27Q444.16-27 446.61-26.25 449.06-25.5 450.76-24.1 452.46-22.7 453.33-20.78 454.21-18.85 454.21-16.5L454.21-16.5 454.21 0 440.21 0Q433.41 0 430.18-2.05 426.96-4.1 426.96-8.25L426.96-8.25Q426.96-12.4 430.18-14.45 433.41-16.5 440.21-16.5L440.21-16.5ZM480.71-26L480.71-22.5 474.71-22.5Q471.31-22.5 469.51-20.68 467.71-18.85 467.71-15.25L467.71-15.25 467.71 0 460.71 0 460.71-15.25Q460.71-20.35 463.93-23.18 467.16-26 473.21-26L473.21-26 480.71-26ZM512.2-15.75L512.2 0 505.2 0 505.2-15.75Q505.2-19.35 503.4-20.93 501.6-22.5 498.2-22.5L498.2-22.5 491.7-22.5 491.7 0 484.7 0 484.7-26 498.2-26Q505.35-26 508.78-23.43 512.2-20.85 512.2-15.75L512.2-15.75ZM525.75-10L519.2-10 518.45-35 526.45-35 525.75-10ZM526.2-3.25L526.2-3.25Q526.2-1.75 525.18-0.63 524.15 0.5 522.45 0.5L522.45 0.5Q520.75 0.5 519.73-0.63 518.7-1.75 518.7-3.25L518.7-3.25Q518.7-4.75 519.73-5.88 520.75-7 522.45-7L522.45-7Q524.1-7 525.15-5.88 526.2-4.75 526.2-3.25Z" opacity="1" transform="matrix(1,0,0,1,0,0)" fill="#000000" class="undefined-text-1" data-fill-palette-color="secondary" id="text-1"></path></svg></g></svg></g></svg></g></svg></g><g></g></svg></g><defs></defs></svg><rect width="395.52" height="97.25007698514904" fill="none" stroke="none" visibility="hidden"></rect></g></svg></g></svg>